<svg xmlns="http://www.w3.org/2000/svg" xmlns:xlink="http://www.w3.org/1999/xlink" width="500" zoomAndPan="magnify" viewBox="0 0 375 374.999991" height="500" preserveAspectRatio="xMidYMid meet" version="1.0"><defs><clipPath id="2d6a5e04b7"><path d="M 103 67.714844 L 253 67.714844 L 253 306.6875 L 103 306.6875 Z M 103 67.714844 " clip-rule="nonzero"/></clipPath><clipPath id="c5a695c8a4"><path d="M 67.933594 125 L 129 125 L 129 188 L 67.933594 188 Z M 67.933594 125 " clip-rule="nonzero"/></clipPath><clipPath id="6d7fb66595"><path d="M 252 178 L 306.9375 178 L 306.9375 222 L 252 222 Z M 252 178 " clip-rule="nonzero"/></clipPath><clipPath id="fe26598665"><path d="M 138 163 L 253 163 L 253 306.6875 L 138 306.6875 Z M 138 163 " clip-rule="nonzero"/></clipPath><clipPath id="b117f1021f"><path d="M 155.910156 209.070312 L 202.945312 209.070312 L 202.945312 256.105469 L 155.910156 256.105469 Z M 155.910156 209.070312 " clip-rule="nonzero"/></clipPath><clipPath id="139318eb59"><path d="M 179.425781 209.070312 C 166.4375 209.070312 155.910156 219.597656 155.910156 232.585938 C 155.910156 245.578125 166.4375 256.105469 179.425781 256.105469 C 192.417969 256.105469 202.945312 245.578125 202.945312 232.585938 C 202.945312 219.597656 192.417969 209.070312 179.425781 209.070312 Z M 179.425781 209.070312 " clip-rule="nonzero"/></clipPath></defs><g clip-path="url(#2d6a5e04b7)"><path fill="#48cae4" d="M 103.902344 236.757812 C 105.933594 276.035156 138.421875 307.277344 178.246094 307.277344 C 219.34375 307.277344 252.679688 273.945312 252.679688 232.84375 C 252.679688 200.960938 232.628906 173.789062 204.484375 163.171875 C 217.980469 174.332031 226.59375 191.226562 226.59375 210.152344 C 226.59375 231.714844 215.402344 250.675781 198.472656 261.503906 C 196.503906 262.894531 194.378906 264.078125 192.164062 265.050781 C 187.886719 266.871094 183.1875 267.902344 178.242188 267.902344 C 158.769531 267.902344 143.027344 252.128906 143.027344 232.6875 C 143.027344 224.136719 146.058594 216.339844 151.09375 210.242188 C 174.964844 181.429688 188.066406 162.863281 188.066406 125.558594 C 188.066406 104.480469 182.425781 84.734375 172.570312 67.71875 C 176.148438 77.121094 178.089844 87.3125 178.089844 97.988281 C 178.089844 127.4375 162.925781 154.648438 138.019531 170.175781 C 121.339844 180.910156 109.234375 198.113281 105.230469 218.21875 C 104.292969 222.953125 103.773438 227.835938 103.773438 232.835938 C 103.785156 234.148438 103.847656 235.453125 103.902344 236.757812 Z M 103.902344 236.757812 " fill-opacity="1" fill-rule="evenodd"/></g><g clip-path="url(#c5a695c8a4)"><path fill="#023e8a" d="M 109.09375 187.46875 C 97.382812 177.398438 79.304688 157.804688 67.933594 125.867188 C 67.933594 125.867188 85.222656 154.378906 128.199219 167.027344 C 120.648438 172.726562 114.21875 179.640625 109.09375 187.46875 Z M 109.09375 187.46875 " fill-opacity="1" fill-rule="evenodd"/></g><g clip-path="url(#6d7fb66595)"><path fill="#48cae4" d="M 252.675781 196.996094 C 265.625 189.351562 283.703125 181.523438 307.058594 178.070312 C 307.058594 178.070312 279.066406 192.296875 260.015625 221.015625 C 258.804688 212.585938 256.289062 204.484375 252.675781 196.996094 Z M 252.675781 196.996094 " fill-opacity="1" fill-rule="evenodd"/></g><g clip-path="url(#fe26598665)"><path fill="#023e8a" d="M 252.675781 232.84375 C 252.675781 211.914062 244.03125 192.984375 230.109375 179.460938 C 222.832031 172.394531 214.125 166.8125 204.484375 163.171875 C 209.425781 167.234375 213.707031 172.121094 217.160156 177.546875 C 223.132812 186.980469 226.59375 198.144531 226.59375 210.15625 C 226.59375 231.722656 215.402344 250.679688 198.472656 261.507812 C 196.503906 262.902344 194.378906 264.085938 192.164062 265.058594 C 187.886719 266.878906 183.1875 267.90625 178.242188 267.90625 C 158.769531 267.90625 143.027344 252.136719 143.027344 232.691406 C 143.027344 228.507812 143.753906 224.472656 145.085938 220.746094 C 140.71875 230.207031 138.292969 240.761719 138.292969 251.863281 C 138.292969 272.789062 146.9375 291.71875 160.859375 305.246094 C 166.441406 306.582031 172.261719 307.277344 178.242188 307.277344 C 219.34375 307.277344 252.675781 273.945312 252.675781 232.84375 Z M 252.675781 232.84375 " fill-opacity="1" fill-rule="evenodd"/></g><path fill="#023e8a" d="M 130.902344 87.226562 C 144.367188 87.226562 155.289062 98.144531 155.289062 111.640625 C 155.289062 125.109375 144.367188 136.027344 130.902344 136.027344 C 117.433594 136.027344 106.515625 125.109375 106.515625 111.640625 C 106.515625 98.144531 117.433594 87.226562 130.902344 87.226562 Z M 130.902344 87.226562 " fill-opacity="1" fill-rule="evenodd"/><path fill="#48cae4" d="M 254.3125 136.90625 C 264.597656 136.90625 272.910156 145.246094 272.910156 155.527344 C 272.910156 165.808594 264.597656 174.152344 254.3125 174.152344 C 244.03125 174.152344 235.691406 165.808594 235.691406 155.527344 C 235.691406 145.246094 244.03125 136.90625 254.3125 136.90625 Z M 254.3125 136.90625 " fill-opacity="1" fill-rule="evenodd"/><g clip-path="url(#b117f1021f)"><g clip-path="url(#139318eb59)"><path fill="#48cae4" d="M 155.910156 209.070312 L 202.945312 209.070312 L 202.945312 256.105469 L 155.910156 256.105469 Z M 155.910156 209.070312 " fill-opacity="1" fill-rule="nonzero"/></g></g></svg>