<svg xmlns="http://www.w3.org/2000/svg" xmlns:xlink="http://www.w3.org/1999/xlink" width="500" zoomAndPan="magnify" viewBox="0 0 375 374.999991" height="500" preserveAspectRatio="xMidYMid meet" version="1.0"><defs><g/><clipPath id="e32d9aedc8"><path d="M 190 137.292969 L 249 137.292969 L 249 230.789062 L 190 230.789062 Z M 190 137.292969 " clip-rule="nonzero"/></clipPath><clipPath id="ca35f4c63b"><path d="M 176.964844 159 L 201 159 L 201 184 L 176.964844 184 Z M 176.964844 159 " clip-rule="nonzero"/></clipPath><clipPath id="83f9e04a1c"><path d="M 248 180 L 270.003906 180 L 270.003906 198 L 248 198 Z M 248 180 " clip-rule="nonzero"/></clipPath><clipPath id="e962a12d97"><path d="M 204 174 L 249 174 L 249 230.789062 L 204 230.789062 Z M 204 174 " clip-rule="nonzero"/></clipPath><clipPath id="f8e0c13391"><path d="M 211.242188 192.367188 L 229.570312 192.367188 L 229.570312 210.695312 L 211.242188 210.695312 Z M 211.242188 192.367188 " clip-rule="nonzero"/></clipPath><clipPath id="e37d5fe258"><path d="M 220.40625 192.367188 C 215.34375 192.367188 211.242188 196.46875 211.242188 201.53125 C 211.242188 206.59375 215.34375 210.695312 220.40625 210.695312 C 225.464844 210.695312 229.570312 206.59375 229.570312 201.53125 C 229.570312 196.46875 225.464844 192.367188 220.40625 192.367188 Z M 220.40625 192.367188 " clip-rule="nonzero"/></clipPath></defs><g clip-path="url(#e32d9aedc8)"><path fill="#48cae4" d="M 190.980469 203.152344 C 191.769531 218.457031 204.429688 230.628906 219.945312 230.628906 C 235.960938 230.628906 248.949219 217.644531 248.949219 201.628906 C 248.949219 189.207031 241.136719 178.617188 230.167969 174.480469 C 235.429688 178.832031 238.785156 185.414062 238.785156 192.785156 C 238.785156 201.1875 234.421875 208.574219 227.828125 212.796875 C 227.0625 213.339844 226.230469 213.800781 225.371094 214.179688 C 223.703125 214.886719 221.871094 215.289062 219.945312 215.289062 C 212.359375 215.289062 206.222656 209.144531 206.222656 201.566406 C 206.222656 198.234375 207.40625 195.199219 209.367188 192.820312 C 218.667969 181.59375 223.773438 174.363281 223.773438 159.828125 C 223.773438 151.613281 221.574219 143.917969 217.734375 137.289062 C 219.128906 140.953125 219.886719 144.925781 219.886719 149.082031 C 219.886719 160.558594 213.976562 171.160156 204.273438 177.210938 C 197.773438 181.394531 193.058594 188.09375 191.496094 195.929688 C 191.128906 197.773438 190.929688 199.675781 190.929688 201.625 C 190.933594 202.136719 190.957031 202.644531 190.980469 203.152344 Z M 190.980469 203.152344 " fill-opacity="1" fill-rule="evenodd"/></g><g clip-path="url(#ca35f4c63b)"><path fill="#023e8a" d="M 193 183.949219 C 188.4375 180.023438 181.394531 172.390625 176.964844 159.945312 C 176.964844 159.945312 183.699219 171.054688 200.445312 175.984375 C 197.503906 178.207031 195 180.898438 193 183.949219 Z M 193 183.949219 " fill-opacity="1" fill-rule="evenodd"/></g><g clip-path="url(#83f9e04a1c)"><path fill="#48cae4" d="M 248.945312 187.660156 C 253.992188 184.683594 261.035156 181.632812 270.136719 180.285156 C 270.136719 180.285156 259.230469 185.828125 251.808594 197.019531 C 251.335938 193.734375 250.355469 190.578125 248.945312 187.660156 Z M 248.945312 187.660156 " fill-opacity="1" fill-rule="evenodd"/></g><g clip-path="url(#e962a12d97)"><path fill="#023e8a" d="M 248.945312 201.628906 C 248.945312 193.472656 245.578125 186.097656 240.15625 180.828125 C 237.320312 178.074219 233.925781 175.898438 230.167969 174.480469 C 232.09375 176.0625 233.761719 177.96875 235.109375 180.082031 C 237.4375 183.757812 238.785156 188.109375 238.785156 192.789062 C 238.785156 201.191406 234.421875 208.578125 227.828125 212.796875 C 227.0625 213.339844 226.230469 213.800781 225.371094 214.179688 C 223.703125 214.890625 221.871094 215.289062 219.945312 215.289062 C 212.359375 215.289062 206.222656 209.144531 206.222656 201.570312 C 206.222656 199.9375 206.507812 198.367188 207.027344 196.914062 C 205.324219 200.601562 204.378906 204.714844 204.378906 209.039062 C 204.378906 217.191406 207.746094 224.570312 213.171875 229.839844 C 215.347656 230.359375 217.613281 230.628906 219.945312 230.628906 C 235.960938 230.628906 248.945312 217.644531 248.945312 201.628906 Z M 248.945312 201.628906 " fill-opacity="1" fill-rule="evenodd"/></g><path fill="#023e8a" d="M 201.5 144.890625 C 206.746094 144.890625 211 149.144531 211 154.402344 C 211 159.652344 206.746094 163.90625 201.5 163.90625 C 196.25 163.90625 191.996094 159.652344 191.996094 154.402344 C 191.996094 149.144531 196.25 144.890625 201.5 144.890625 Z M 201.5 144.890625 " fill-opacity="1" fill-rule="evenodd"/><path fill="#48cae4" d="M 249.585938 164.246094 C 253.589844 164.246094 256.832031 167.496094 256.832031 171.503906 C 256.832031 175.507812 253.589844 178.757812 249.585938 178.757812 C 245.578125 178.757812 242.328125 175.507812 242.328125 171.503906 C 242.328125 167.496094 245.578125 164.246094 249.585938 164.246094 Z M 249.585938 164.246094 " fill-opacity="1" fill-rule="evenodd"/><g clip-path="url(#f8e0c13391)"><g clip-path="url(#e37d5fe258)"><path fill="#48cae4" d="M 211.242188 192.367188 L 229.570312 192.367188 L 229.570312 210.695312 L 211.242188 210.695312 Z M 211.242188 192.367188 " fill-opacity="1" fill-rule="nonzero"/></g></g><g fill="#023e8a" fill-opacity="1"><g transform="translate(35.663619, 229.150427)"><g><path d="M 31.421875 0.710938 C 47.527344 0.710938 58.640625 -10.832031 58.640625 -25.792969 C 58.640625 -41.042969 46.527344 -52.085938 30.996094 -52.085938 C 14.964844 -52.085938 3.632812 -40.542969 3.632812 -25.507812 C 3.632812 -10.332031 15.816406 0.710938 31.421875 0.710938 Z M 31.992188 -2.207031 C 19.738281 -2.207031 13.039062 -14.679688 13.039062 -27.433594 C 13.039062 -39.757812 19.878906 -49.164062 30.425781 -49.164062 C 42.679688 -49.164062 49.234375 -36.625 49.234375 -24.011719 C 49.234375 -11.402344 42.46875 -2.207031 31.992188 -2.207031 Z M 31.992188 -2.207031 "/></g></g></g><g fill="#023e8a" fill-opacity="1"><g transform="translate(113.044853, 229.150427)"><g><path d="M 19.097656 -6.699219 C 18.667969 -13.894531 18.597656 -17.386719 18.597656 -25.652344 C 18.597656 -33.917969 18.667969 -37.40625 19.097656 -44.605469 C 19.308594 -48.238281 20.804688 -49.949219 25.011719 -50.875 L 25.011719 -51.300781 C 21.449219 -51.089844 17.527344 -50.875 14.25 -50.875 C 11.042969 -50.875 7.125 -51.089844 3.492188 -51.300781 L 3.492188 -50.875 C 7.625 -50.019531 9.261719 -48.238281 9.476562 -44.605469 C 9.902344 -38.191406 9.902344 -33.0625 9.902344 -25.652344 C 9.902344 -18.242188 9.902344 -13.109375 9.476562 -6.699219 C 9.261719 -3.0625 7.625 -1.28125 3.492188 -0.425781 L 3.492188 0 C 7.125 -0.214844 11.042969 -0.425781 14.25 -0.425781 C 17.527344 -0.425781 21.449219 -0.214844 25.011719 0 L 25.011719 -0.425781 C 20.949219 -1.28125 19.308594 -3.0625 19.097656 -6.699219 Z M 28.359375 -29.144531 L 44.605469 -45.105469 C 47.453125 -47.953125 50.164062 -50.164062 52.800781 -50.875 L 52.800781 -51.300781 C 49.59375 -51.019531 47.3125 -50.875 44.535156 -50.875 C 41.683594 -50.875 38.476562 -51.160156 35.984375 -51.300781 L 35.984375 -50.875 C 40.328125 -50.019531 41.613281 -47.882812 38.261719 -44.390625 L 19.667969 -25.367188 C 40.117188 -4.917969 34.84375 -0.0703125 59.210938 0 L 59.210938 -0.425781 C 48.308594 -1.640625 48.953125 -8.121094 28.359375 -29.144531 Z M 28.359375 -29.144531 "/></g></g></g><g fill="#023e8a" fill-opacity="1"><g transform="translate(270.137507, 229.150427)"><g><path d="M 46.957031 -7.054688 C 37.621094 -26.648438 33.277344 -35.839844 26.007812 -52.085938 L 25.863281 -52.085938 C 21.519531 -40.898438 12.753906 -20.519531 6.839844 -7.125 C 4.917969 -2.851562 2.707031 -0.785156 0.425781 -0.425781 L 0.425781 0 C 2.421875 -0.214844 4.988281 -0.425781 7.765625 -0.425781 C 10.046875 -0.425781 13.109375 -0.214844 15.460938 0 L 15.460938 -0.425781 C 10.972656 -0.925781 9.832031 -2.921875 11.402344 -7.125 C 12.328125 -9.476562 13.183594 -11.828125 14.109375 -14.179688 C 16.746094 -14.320312 20.164062 -14.394531 23.585938 -14.394531 C 27.078125 -14.394531 30.78125 -14.320312 33.703125 -14.25 C 34.84375 -11.542969 35.910156 -9.121094 36.695312 -6.984375 C 38.261719 -2.921875 36.339844 -0.855469 31.992188 -0.425781 L 31.992188 0 C 35.484375 -0.285156 40.472656 -0.425781 43.605469 -0.425781 C 46.742188 -0.425781 51.300781 -0.214844 53.726562 0 L 53.726562 -0.425781 C 50.234375 -1.070312 48.878906 -2.992188 46.957031 -7.054688 Z M 23.515625 -17.601562 C 21.164062 -17.601562 18.027344 -17.742188 15.605469 -17.882812 C 18.242188 -24.652344 20.878906 -31.210938 23.300781 -37.050781 C 25.792969 -31.777344 29.214844 -24.582031 32.136719 -17.882812 C 29.285156 -17.742188 26.007812 -17.601562 23.515625 -17.601562 Z M 23.515625 -17.601562 "/></g></g></g></svg>